<?xml version="1.0" encoding="UTF-8" standalone="no"?>
<svg
   version="1.1"
   width="36"
   height="36"
   viewBox="0 0 36 36"
   preserveAspectRatio="xMidYMid meet"
   id="svg2"
   sodipodi:docname="home.svg"
   inkscape:version="1.3 (0e150ed6c4, 2023-07-21)"
   xmlns:inkscape="http://www.inkscape.org/namespaces/inkscape"
   xmlns:sodipodi="http://sodipodi.sourceforge.net/DTD/sodipodi-0.dtd"
   xmlns="http://www.w3.org/2000/svg"
   xmlns:svg="http://www.w3.org/2000/svg">
  <defs
     id="defs2" />
  <sodipodi:namedview
     id="namedview2"
     pagecolor="#ffffff"
     bordercolor="#000000"
     borderopacity="0.25"
     inkscape:showpageshadow="2"
     inkscape:pageopacity="0.0"
     inkscape:pagecheckerboard="0"
     inkscape:deskcolor="#d1d1d1"
     inkscape:zoom="24.305556"
     inkscape:cx="18"
     inkscape:cy="18"
     inkscape:window-width="1920"
     inkscape:window-height="1048"
     inkscape:window-x="0"
     inkscape:window-y="32"
     inkscape:window-maximized="1"
     inkscape:current-layer="svg2" />
  <title
     id="title1">home-line</title>
  <path
     class="clr-i-outline clr-i-outline-path-1"
     d="M33.71,17.29l-15-15a1,1,0,0,0-1.41,0l-15,15a1,1,0,0,0,1.41,1.41L18,4.41,32.29,18.71a1,1,0,0,0,1.41-1.41Z"
     id="path1"
     style="fill:#ffffff" />
  <path
     class="clr-i-outline clr-i-outline-path-2"
     d="M28,32h-5V22H13V32H8V18L6,20V32a2,2,0,0,0,2,2h7V24h6V34h7a2,2,0,0,0,2-2V19.76l-2-2Z"
     id="path2"
     style="fill:#ffffff" />
  <rect
     x="0"
     y="0"
     width="36"
     height="36"
     fill-opacity="0"
     id="rect2"
     style="fill:#ffffff" />
</svg>
