<?xml version="1.0" encoding="UTF-8" standalone="no"?>
<svg
   version="1.1"
   width="36"
   height="36"
   viewBox="0 0 36 36"
   preserveAspectRatio="xMidYMid meet"
   id="svg2"
   sodipodi:docname="user.svg"
   inkscape:version="1.3 (0e150ed6c4, 2023-07-21)"
   xmlns:inkscape="http://www.inkscape.org/namespaces/inkscape"
   xmlns:sodipodi="http://sodipodi.sourceforge.net/DTD/sodipodi-0.dtd"
   xmlns="http://www.w3.org/2000/svg"
   xmlns:svg="http://www.w3.org/2000/svg">
  <defs
     id="defs2" />
  <sodipodi:namedview
     id="namedview2"
     pagecolor="#ffffff"
     bordercolor="#000000"
     borderopacity="0.25"
     inkscape:showpageshadow="2"
     inkscape:pageopacity="0.0"
     inkscape:pagecheckerboard="0"
     inkscape:deskcolor="#d1d1d1"
     inkscape:zoom="24.305556"
     inkscape:cx="18"
     inkscape:cy="18"
     inkscape:window-width="1920"
     inkscape:window-height="1048"
     inkscape:window-x="0"
     inkscape:window-y="32"
     inkscape:window-maximized="1"
     inkscape:current-layer="svg2" />
  <title
     id="title1">avatar-line</title>
  <path
     d="M18,17a7,7,0,1,0-7-7A7,7,0,0,0,18,17ZM18,5a5,5,0,1,1-5,5A5,5,0,0,1,18,5Z"
     class="clr-i-outline clr-i-outline-path-1"
     id="path1"
     style="fill:#ffffff" />
  <path
     d="M30.47,24.37a17.16,17.16,0,0,0-24.93,0A2,2,0,0,0,5,25.74V31a2,2,0,0,0,2,2H29a2,2,0,0,0,2-2V25.74A2,2,0,0,0,30.47,24.37ZM29,31H7V25.73a15.17,15.17,0,0,1,22,0h0Z"
     class="clr-i-outline clr-i-outline-path-2"
     id="path2"
     style="fill:#ffffff" />
  <rect
     x="0"
     y="0"
     width="36"
     height="36"
     fill-opacity="0"
     id="rect2"
     style="fill:#ffffff" />
</svg>
