<?xml version="1.0" encoding="UTF-8" standalone="no"?>
<svg
   version="1.1"
   width="36"
   height="36"
   viewBox="0 0 36 36"
   preserveAspectRatio="xMidYMid meet"
   id="svg3"
   sodipodi:docname="align-bottom-line.svg"
   inkscape:version="1.3 (0e150ed6c4, 2023-07-21)"
   xmlns:inkscape="http://www.inkscape.org/namespaces/inkscape"
   xmlns:sodipodi="http://sodipodi.sourceforge.net/DTD/sodipodi-0.dtd"
   xmlns="http://www.w3.org/2000/svg"
   xmlns:svg="http://www.w3.org/2000/svg">
  <defs
     id="defs3" />
  <sodipodi:namedview
     id="namedview3"
     pagecolor="#ffffff"
     bordercolor="#000000"
     borderopacity="0.25"
     inkscape:showpageshadow="2"
     inkscape:pageopacity="0.0"
     inkscape:pagecheckerboard="0"
     inkscape:deskcolor="#d1d1d1"
     inkscape:zoom="24.388889"
     inkscape:cx="17.979499"
     inkscape:cy="18"
     inkscape:window-width="1920"
     inkscape:window-height="1048"
     inkscape:window-x="0"
     inkscape:window-y="32"
     inkscape:window-maximized="1"
     inkscape:current-layer="svg3" />
  <title
     id="title1">align-bottom-line</title>
  <path
     d="M34,30H2a1,1,0,0,0,0,2H34a1,1,0,0,0,0-2Z"
     class="clr-i-outline clr-i-outline-path-1"
     id="path1"
     style="fill:#f9f9f9" />
  <path
     d="M16,5a1,1,0,0,0-1-1H7A1,1,0,0,0,6,5V28H16ZM14,26H8V6h6Z"
     class="clr-i-outline clr-i-outline-path-2"
     id="path2"
     style="fill:#f9f9f9" />
  <path
     d="M30,13a1,1,0,0,0-1-1H21a1,1,0,0,0-1,1V28H30ZM28,26H22V14h6Z"
     class="clr-i-outline clr-i-outline-path-3"
     id="path3"
     style="fill:#f9f9f9" />
  <rect
     x="0"
     y="0"
     width="36"
     height="36"
     fill-opacity="0"
     id="rect3"
     style="fill:#f9f9f9" />
</svg>
