<?xml version="1.0" encoding="UTF-8" standalone="no"?>
<svg
   version="1.1"
   width="36"
   height="36"
   viewBox="0 0 36 36"
   preserveAspectRatio="xMidYMid meet"
   id="svg4"
   sodipodi:docname="align-left-text-line.svg"
   inkscape:version="1.3 (0e150ed6c4, 2023-07-21)"
   xmlns:inkscape="http://www.inkscape.org/namespaces/inkscape"
   xmlns:sodipodi="http://sodipodi.sourceforge.net/DTD/sodipodi-0.dtd"
   xmlns="http://www.w3.org/2000/svg"
   xmlns:svg="http://www.w3.org/2000/svg">
  <defs
     id="defs4" />
  <sodipodi:namedview
     id="namedview4"
     pagecolor="#ffffff"
     bordercolor="#000000"
     borderopacity="0.25"
     inkscape:showpageshadow="2"
     inkscape:pageopacity="0.0"
     inkscape:pagecheckerboard="0"
     inkscape:deskcolor="#d1d1d1"
     inkscape:zoom="24.388889"
     inkscape:cx="17.979499"
     inkscape:cy="18"
     inkscape:window-width="1920"
     inkscape:window-height="1048"
     inkscape:window-x="0"
     inkscape:window-y="32"
     inkscape:window-maximized="1"
     inkscape:current-layer="svg4" />
  <title
     id="title1">align-left-text-line</title>
  <path
     d="M20.25,26H6v2.2H20.25a1.1,1.1,0,0,0,0-2.2Z"
     class="clr-i-outline clr-i-outline-path-1"
     id="path1"
     style="fill:#f9f9f9" />
  <path
     d="M28,20H6v2.2H28A1.1,1.1,0,0,0,28,20Z"
     class="clr-i-outline clr-i-outline-path-2"
     id="path2"
     style="fill:#f9f9f9" />
  <path
     d="M22.6,15.1A1.1,1.1,0,0,0,21.5,14H6v2.2H21.5A1.1,1.1,0,0,0,22.6,15.1Z"
     class="clr-i-outline clr-i-outline-path-3"
     id="path3"
     style="fill:#f9f9f9" />
  <path
     d="M29.25,8H6v2.2H29.25a1.1,1.1,0,1,0,0-2.2Z"
     class="clr-i-outline clr-i-outline-path-4"
     id="path4"
     style="fill:#f9f9f9" />
  <rect
     x="0"
     y="0"
     width="36"
     height="36"
     fill-opacity="0"
     id="rect4"
     style="fill:#f9f9f9" />
</svg>
