<?xml version="1.0" encoding="UTF-8" standalone="no"?>
<svg
   version="1.1"
   width="36"
   height="36"
   viewBox="0 0 36 36"
   preserveAspectRatio="xMidYMid meet"
   id="svg1"
   sodipodi:docname="align-center-line.svg"
   inkscape:version="1.3 (0e150ed6c4, 2023-07-21)"
   xmlns:inkscape="http://www.inkscape.org/namespaces/inkscape"
   xmlns:sodipodi="http://sodipodi.sourceforge.net/DTD/sodipodi-0.dtd"
   xmlns="http://www.w3.org/2000/svg"
   xmlns:svg="http://www.w3.org/2000/svg">
  <defs
     id="defs1" />
  <sodipodi:namedview
     id="namedview1"
     pagecolor="#ffffff"
     bordercolor="#000000"
     borderopacity="0.25"
     inkscape:showpageshadow="2"
     inkscape:pageopacity="0.0"
     inkscape:pagecheckerboard="0"
     inkscape:deskcolor="#d1d1d1"
     inkscape:zoom="24.388889"
     inkscape:cx="17.979499"
     inkscape:cy="18"
     inkscape:window-width="1920"
     inkscape:window-height="1048"
     inkscape:window-x="0"
     inkscape:window-y="32"
     inkscape:window-maximized="1"
     inkscape:current-layer="svg1" />
  <title
     id="title1">align-center-line</title>
  <path
     d="M31,20H19V16h6a1,1,0,0,0,1-1V7a1,1,0,0,0-1-1H19V2a1,1,0,0,0-2,0V6H11a1,1,0,0,0-1,1v8a1,1,0,0,0,1,1h6v4H5a1,1,0,0,0-1,1v8a1,1,0,0,0,1,1H17v4a1,1,0,0,0,2,0V30H31a1,1,0,0,0,1-1V21A1,1,0,0,0,31,20ZM12,14V8H24v6ZM30,28H6V22H30Z"
     class="clr-i-outline clr-i-outline-path-1"
     id="path1"
     style="fill:#f9f9f9" />
  <rect
     x="0"
     y="0"
     width="36"
     height="36"
     fill-opacity="0"
     id="rect1"
     style="fill:#f9f9f9" />
</svg>
