<?xml version="1.0" encoding="UTF-8" standalone="no"?>
<svg
   version="1.1"
   width="36"
   height="36"
   viewBox="0 0 36 36"
   preserveAspectRatio="xMidYMid meet"
   id="svg5"
   sodipodi:docname="binary-tally.svg"
   inkscape:version="1.3 (0e150ed6c4, 2023-07-21)"
   xmlns:inkscape="http://www.inkscape.org/namespaces/inkscape"
   xmlns:sodipodi="http://sodipodi.sourceforge.net/DTD/sodipodi-0.dtd"
   xmlns="http://www.w3.org/2000/svg"
   xmlns:svg="http://www.w3.org/2000/svg">
  <defs
     id="defs5" />
  <sodipodi:namedview
     id="namedview5"
     pagecolor="#ffffff"
     bordercolor="#000000"
     borderopacity="0.25"
     inkscape:showpageshadow="2"
     inkscape:pageopacity="0.0"
     inkscape:pagecheckerboard="0"
     inkscape:deskcolor="#d1d1d1"
     inkscape:zoom="24.305556"
     inkscape:cx="18"
     inkscape:cy="18"
     inkscape:window-width="1920"
     inkscape:window-height="1048"
     inkscape:window-x="0"
     inkscape:window-y="32"
     inkscape:window-maximized="1"
     inkscape:current-layer="svg5" />
  <title
     id="title1">tree-view-line</title>
  <path
     d="M15,32H11a1,1,0,0,1-1-1V27a1,1,0,0,1,1-1h4a1,1,0,0,1,1,1v4A1,1,0,0,1,15,32Zm-3-2h2V28H12Z"
     class="clr-i-outline clr-i-outline-path-1"
     id="path1"
     style="fill:#ffffff" />
  <path
     d="M15,16H11a1,1,0,0,0-1,1v1.2H5.8V12H7a1,1,0,0,0,1-1V7A1,1,0,0,0,7,6H3A1,1,0,0,0,2,7v4a1,1,0,0,0,1,1H4.2V29.8h6.36a.8.8,0,0,0,0-1.6H5.8V19.8H10V21a1,1,0,0,0,1,1h4a1,1,0,0,0,1-1V17A1,1,0,0,0,15,16ZM4,8H6v2H4ZM14,20H12V18h2Z"
     class="clr-i-outline clr-i-outline-path-2"
     id="path2"
     style="fill:#ffffff" />
  <path
     d="M34,9a1,1,0,0,0-1-1H10v2H33A1,1,0,0,0,34,9Z"
     class="clr-i-outline clr-i-outline-path-3"
     id="path3"
     style="fill:#ffffff" />
  <path
     d="M33,18H18v2H33a1,1,0,0,0,0-2Z"
     class="clr-i-outline clr-i-outline-path-4"
     id="path4"
     style="fill:#ffffff" />
  <path
     d="M33,28H18v2H33a1,1,0,0,0,0-2Z"
     class="clr-i-outline clr-i-outline-path-5"
     id="path5"
     style="fill:#ffffff" />
  <rect
     x="0"
     y="0"
     width="36"
     height="36"
     fill-opacity="0"
     id="rect5"
     style="fill:#ffffff" />
</svg>
