<?xml version="1.0" encoding="UTF-8" standalone="no"?>
<svg
   version="1.1"
   width="36"
   height="36"
   viewBox="0 0 36 36"
   preserveAspectRatio="xMidYMid meet"
   id="svg10"
   sodipodi:docname="calculator.svg"
   inkscape:version="1.3 (0e150ed6c4, 2023-07-21)"
   xmlns:inkscape="http://www.inkscape.org/namespaces/inkscape"
   xmlns:sodipodi="http://sodipodi.sourceforge.net/DTD/sodipodi-0.dtd"
   xmlns="http://www.w3.org/2000/svg"
   xmlns:svg="http://www.w3.org/2000/svg">
  <defs
     id="defs10" />
  <sodipodi:namedview
     id="namedview10"
     pagecolor="#ffffff"
     bordercolor="#000000"
     borderopacity="0.25"
     inkscape:showpageshadow="2"
     inkscape:pageopacity="0.0"
     inkscape:pagecheckerboard="0"
     inkscape:deskcolor="#d1d1d1"
     inkscape:zoom="24.305556"
     inkscape:cx="18"
     inkscape:cy="18"
     inkscape:window-width="1920"
     inkscape:window-height="1048"
     inkscape:window-x="0"
     inkscape:window-y="32"
     inkscape:window-maximized="1"
     inkscape:current-layer="svg10" />
  <title
     id="title1">calculator-line</title>
  <path
     class="clr-i-outline clr-i-outline-path-1"
     d="M28,2H8A2,2,0,0,0,6,4V32a2,2,0,0,0,2,2H28a2,2,0,0,0,2-2V4A2,2,0,0,0,28,2ZM8,32V4H28V32Z"
     id="path1"
     style="fill:#00d4aa" />
  <path
     class="clr-i-outline clr-i-outline-path-2"
     d="M12,8H25.67V6H11a1,1,0,0,0-1,1v4.67h2Z"
     id="path2"
     style="fill:#00d4aa" />
  <polygon
     class="clr-i-outline clr-i-outline-path-3"
     points="12 16 10 16 10 18 14 18 14 14 12 14 12 16"
     id="polygon2"
     style="fill:#00d4aa" />
  <polygon
     class="clr-i-outline clr-i-outline-path-4"
     points="24 16 22 16 22 18 26 18 26 14 24 14 24 16"
     id="polygon3"
     style="fill:#00d4aa" />
  <polygon
     class="clr-i-outline clr-i-outline-path-5"
     points="18 16 16 16 16 18 20 18 20 14 18 14 18 16"
     id="polygon4"
     style="fill:#00d4aa" />
  <polygon
     class="clr-i-outline clr-i-outline-path-6"
     points="12 22 10 22 10 24 14 24 14 20 12 20 12 22"
     id="polygon5"
     style="fill:#00d4aa" />
  <polygon
     class="clr-i-outline clr-i-outline-path-7"
     points="24 22 22 22 22 24 26 24 26 20 24 20 24 22"
     id="polygon6"
     style="fill:#00d4aa" />
  <polygon
     class="clr-i-outline clr-i-outline-path-8"
     points="18 22 16 22 16 24 20 24 20 20 18 20 18 22"
     id="polygon7"
     style="fill:#00d4aa" />
  <polygon
     class="clr-i-outline clr-i-outline-path-9"
     points="12 28 10 28 10 30 14 30 14 26 12 26 12 28"
     id="polygon8"
     style="fill:#00d4aa" />
  <polygon
     class="clr-i-outline clr-i-outline-path-10"
     points="24 28 22 28 22 30 26 30 26 26 24 26 24 28"
     id="polygon9"
     style="fill:#00d4aa" />
  <polygon
     class="clr-i-outline clr-i-outline-path-11"
     points="18 28 16 28 16 30 20 30 20 26 18 26 18 28"
     id="polygon10"
     style="fill:#00d4aa" />
  <rect
     x="0"
     y="0"
     width="36"
     height="36"
     fill-opacity="0"
     id="rect10"
     style="fill:#00d4aa" />
</svg>
