<?xml version="1.0" encoding="UTF-8" standalone="no"?>
<svg
   version="1.1"
   width="36"
   height="36"
   viewBox="0 0 36 36"
   preserveAspectRatio="xMidYMid meet"
   id="svg2"
   sodipodi:docname="compass.svg"
   inkscape:version="1.3 (0e150ed6c4, 2023-07-21)"
   xmlns:inkscape="http://www.inkscape.org/namespaces/inkscape"
   xmlns:sodipodi="http://sodipodi.sourceforge.net/DTD/sodipodi-0.dtd"
   xmlns="http://www.w3.org/2000/svg"
   xmlns:svg="http://www.w3.org/2000/svg">
  <defs
     id="defs2" />
  <sodipodi:namedview
     id="namedview2"
     pagecolor="#ffffff"
     bordercolor="#000000"
     borderopacity="0.25"
     inkscape:showpageshadow="2"
     inkscape:pageopacity="0.0"
     inkscape:pagecheckerboard="0"
     inkscape:deskcolor="#d1d1d1"
     showguides="false"
     inkscape:zoom="24.305556"
     inkscape:cx="18"
     inkscape:cy="18"
     inkscape:window-width="1272"
     inkscape:window-height="666"
     inkscape:window-x="480"
     inkscape:window-y="628"
     inkscape:window-maximized="0"
     inkscape:current-layer="svg2" />
  <title
     id="title1">compass-line</title>
  <path
     d="M20.82,15.31h0L10.46,9c-.46-.26-1.11.37-.86.84l6.15,10.56,10.56,6.15a.66.66,0,0,0,.84-.86Zm-4,4,3-3,4.55,7.44Z"
     class="clr-i-outline clr-i-outline-path-1"
     id="path1"
     style="fill:#ff0000" />
  <path
     d="M18,2A16,16,0,1,0,34,18,16,16,0,0,0,18,2Zm1,29.95V29.53H17v2.42A14,14,0,0,1,4.05,19H6.47V17H4.05A14,14,0,0,1,17,4.05V6.47h2V4.05A14,14,0,0,1,31.95,17H29.53v2h2.42A14,14,0,0,1,19,31.95Z"
     class="clr-i-outline clr-i-outline-path-2"
     id="path2"
     style="fill:#ffffff" />
  <rect
     x="0"
     y="0"
     width="36"
     height="36"
     fill-opacity="0"
     id="rect2"
     style="fill:#ff0000" />
</svg>
