<?xml version="1.0" encoding="UTF-8" standalone="no"?>
<svg
   version="1.1"
   width="36"
   height="36"
   viewBox="0 0 36 36"
   preserveAspectRatio="xMidYMid meet"
   id="svg12"
   sodipodi:docname="default.svg"
   inkscape:version="1.3 (0e150ed6c4, 2023-07-21)"
   xmlns:inkscape="http://www.inkscape.org/namespaces/inkscape"
   xmlns:sodipodi="http://sodipodi.sourceforge.net/DTD/sodipodi-0.dtd"
   xmlns="http://www.w3.org/2000/svg"
   xmlns:svg="http://www.w3.org/2000/svg">
  <defs
     id="defs12" />
  <sodipodi:namedview
     id="namedview12"
     pagecolor="#ffffff"
     bordercolor="#000000"
     borderopacity="0.25"
     inkscape:showpageshadow="2"
     inkscape:pageopacity="0.0"
     inkscape:pagecheckerboard="0"
     inkscape:deskcolor="#d1d1d1"
     inkscape:zoom="24.388889"
     inkscape:cx="17.979499"
     inkscape:cy="18"
     inkscape:window-width="1920"
     inkscape:window-height="1048"
     inkscape:window-x="0"
     inkscape:window-y="32"
     inkscape:window-maximized="1"
     inkscape:current-layer="svg12" />
  <title
     id="title1">qr-code-line</title>
  <path
     d="M5.6,4A1.6,1.6,0,0,0,4,5.6V12h8V4ZM10,10H6V6h4Z"
     class="clr-i-outline clr-i-outline-path-1"
     id="path1"
     style="fill:#f9f9f9" />
  <path
     d="M4,30.4A1.6,1.6,0,0,0,5.6,32H12V24H4ZM6,26h4v4H6Z"
     class="clr-i-outline clr-i-outline-path-2"
     id="path2"
     style="fill:#f9f9f9" />
  <path
     d="M24,32h6.4A1.6,1.6,0,0,0,32,30.4V24H24Zm2-6h4v4H26Z"
     class="clr-i-outline clr-i-outline-path-3"
     id="path3"
     style="fill:#f9f9f9" />
  <path
     d="M30.4,4H24v8h8V5.6A1.6,1.6,0,0,0,30.4,4ZM30,10H26V6h4Z"
     class="clr-i-outline clr-i-outline-path-4"
     id="path4"
     style="fill:#f9f9f9" />
  <polygon
     points="20 10 20 8 16 8 16 12 18 12 18 10 20 10"
     class="clr-i-outline clr-i-outline-path-5"
     id="polygon4"
     style="fill:#f9f9f9" />
  <rect
     x="12"
     y="12"
     width="2"
     height="2"
     class="clr-i-outline clr-i-outline-path-6"
     id="rect4"
     style="fill:#f9f9f9" />
  <rect
     x="14"
     y="14"
     width="4"
     height="2"
     class="clr-i-outline clr-i-outline-path-7"
     id="rect5"
     style="fill:#f9f9f9" />
  <polygon
     points="20 6 20 8 22 8 22 4 14 4 14 8 16 8 16 6 20 6"
     class="clr-i-outline clr-i-outline-path-8"
     id="polygon5"
     style="fill:#f9f9f9" />
  <rect
     x="4"
     y="14"
     width="2"
     height="4"
     class="clr-i-outline clr-i-outline-path-9"
     id="rect6"
     style="fill:#f9f9f9" />
  <polygon
     points="12 16 12 18 10 18 10 14 8 14 8 18 6 18 6 20 4 20 4 22 8 22 8 20 10 20 10 22 12 22 12 20 14 20 14 16 12 16"
     class="clr-i-outline clr-i-outline-path-10"
     id="polygon6"
     style="fill:#f9f9f9" />
  <polygon
     points="20 16 22 16 22 18 24 18 24 16 26 16 26 14 22 14 22 10 20 10 20 12 18 12 18 14 20 14 20 16"
     class="clr-i-outline clr-i-outline-path-11"
     id="polygon7"
     style="fill:#f9f9f9" />
  <polygon
     points="18 30 14 30 14 32 22 32 22 30 20 30 20 28 18 28 18 30"
     class="clr-i-outline clr-i-outline-path-12"
     id="polygon8"
     style="fill:#f9f9f9" />
  <polygon
     points="22 20 22 18 20 18 20 16 18 16 18 18 16 18 16 20 18 20 18 22 20 22 20 20 22 20"
     class="clr-i-outline clr-i-outline-path-13"
     id="polygon9"
     style="fill:#f9f9f9" />
  <rect
     x="30"
     y="20"
     width="2"
     height="2"
     class="clr-i-outline clr-i-outline-path-14"
     id="rect9"
     style="fill:#f9f9f9" />
  <rect
     x="22"
     y="20"
     width="6"
     height="2"
     class="clr-i-outline clr-i-outline-path-15"
     id="rect10"
     style="fill:#f9f9f9" />
  <polygon
     points="30 14 28 14 28 16 26 16 26 18 28 18 28 20 30 20 30 18 32 18 32 16 30 16 30 14"
     class="clr-i-outline clr-i-outline-path-16"
     id="polygon10"
     style="fill:#f9f9f9" />
  <rect
     x="20"
     y="22"
     width="2"
     height="6"
     class="clr-i-outline clr-i-outline-path-17"
     id="rect11"
     style="fill:#f9f9f9" />
  <polygon
     points="14 28 16 28 16 26 18 26 18 24 16 24 16 20 14 20 14 28"
     class="clr-i-outline clr-i-outline-path-18"
     id="polygon11"
     style="fill:#f9f9f9" />
  <rect
     x="0"
     y="0"
     width="36"
     height="36"
     fill-opacity="0"
     id="rect12"
     style="fill:#f9f9f9" />
</svg>
