<?xml version="1.0" encoding="UTF-8" standalone="no"?>
<svg
   version="1.1"
   width="36"
   height="36"
   viewBox="0 0 36 36"
   preserveAspectRatio="xMidYMid meet"
   id="svg1"
   sodipodi:docname="default.svg"
   xml:space="preserve"
   inkscape:version="1.3 (0e150ed6c4, 2023-07-21)"
   xmlns:inkscape="http://www.inkscape.org/namespaces/inkscape"
   xmlns:sodipodi="http://sodipodi.sourceforge.net/DTD/sodipodi-0.dtd"
   xmlns="http://www.w3.org/2000/svg"
   xmlns:svg="http://www.w3.org/2000/svg"><defs
     id="defs1" /><sodipodi:namedview
     id="namedview1"
     pagecolor="#ffffff"
     bordercolor="#000000"
     borderopacity="0.25"
     inkscape:showpageshadow="2"
     inkscape:pageopacity="0.0"
     inkscape:pagecheckerboard="0"
     inkscape:deskcolor="#d1d1d1"
     inkscape:zoom="18.516024"
     inkscape:cx="13.528822"
     inkscape:cy="19.172583"
     inkscape:window-width="1920"
     inkscape:window-height="1048"
     inkscape:window-x="0"
     inkscape:window-y="32"
     inkscape:window-maximized="1"
     inkscape:current-layer="svg1" /><title
     id="title1">unknown-status-line</title><g
     id="g2"
     transform="matrix(0.68336089,0,0,0.6789561,6.1276566,9.3151697)"><circle
       class="clr-i-outline clr-i-outline-path-1"
       cx="17.58"
       cy="26.23"
       r="1.4"
       id="circle1"
       style="fill:#f9f9f9" /><path
       class="clr-i-outline clr-i-outline-path-2"
       d="M 24.7,13 A 5.18,5.18 0 0 0 22.54,9.44 7.26,7.26 0 0 0 16.83,8.35 11.34,11.34 0 0 0 12,10.44 1.0026465,1.0026465 0 1 0 13.26,12 a 9.32,9.32 0 0 1 3.94,-1.72 5.29,5.29 0 0 1 4.16,0.74 3.21,3.21 0 0 1 1.35,2.19 c 0.33,2.69 -3.19,3.75 -5.32,4.14 l -0.82,0.15 v 4.36 a 1,1 0 0 0 2,0 V 19.17 C 24.61,17.79 24.88,14.41 24.7,13 Z"
       id="path1"
       style="fill:#f9f9f9" /></g><g
     id="g1"
     transform="translate(0.04849489,0.23379767)"><rect
       x="5"
       y="7"
       width="2"
       height="2"
       class="clr-i-outline clr-i-outline-path-1"
       id="rect255"
       style="fill:#f9f9f9" /><rect
       x="9"
       y="7"
       width="2"
       height="2"
       class="clr-i-outline clr-i-outline-path-2"
       id="rect257"
       style="fill:#f9f9f9" /><rect
       x="13"
       y="7"
       width="2"
       height="2"
       class="clr-i-outline clr-i-outline-path-3"
       id="rect259"
       style="fill:#f9f9f9" /><path
       d="M 32,4 H 4 A 2,2 0 0 0 2,6 v 24 a 2,2 0 0 0 2,2 h 28 a 2,2 0 0 0 2,-2 V 6 A 2,2 0 0 0 32,4 Z M 4,6 h 28 v 4.2 H 4 Z M 4,30 V 11.8 H 32 V 30 Z"
       class="clr-i-outline clr-i-outline-path-4"
       id="path261"
       style="fill:#f9f9f9" /><rect
       x="0"
       y="0"
       width="36"
       height="36"
       fill-opacity="0"
       id="rect263"
       style="fill:#f9f9f9" /></g></svg>
