<?xml version="1.0" encoding="UTF-8" standalone="no"?>
<svg
   version="1.1"
   width="36"
   height="36"
   viewBox="0 0 36 36"
   preserveAspectRatio="xMidYMid meet"
   id="svg4"
   sodipodi:docname="grid.svg"
   inkscape:version="1.3 (0e150ed6c4, 2023-07-21)"
   xmlns:inkscape="http://www.inkscape.org/namespaces/inkscape"
   xmlns:sodipodi="http://sodipodi.sourceforge.net/DTD/sodipodi-0.dtd"
   xmlns="http://www.w3.org/2000/svg"
   xmlns:svg="http://www.w3.org/2000/svg">
  <defs
     id="defs4" />
  <sodipodi:namedview
     id="namedview4"
     pagecolor="#ffffff"
     bordercolor="#000000"
     borderopacity="0.25"
     inkscape:showpageshadow="2"
     inkscape:pageopacity="0.0"
     inkscape:pagecheckerboard="0"
     inkscape:deskcolor="#d1d1d1"
     inkscape:zoom="24.305556"
     inkscape:cx="18"
     inkscape:cy="18"
     inkscape:window-width="1920"
     inkscape:window-height="1048"
     inkscape:window-x="0"
     inkscape:window-y="32"
     inkscape:window-maximized="1"
     inkscape:current-layer="svg4" />
  <title
     id="title1">grid-view-line</title>
  <path
     class="clr-i-outline clr-i-outline-path-1"
     d="M14,4H6A2,2,0,0,0,4,6v8a2,2,0,0,0,2,2h8a2,2,0,0,0,2-2V6A2,2,0,0,0,14,4ZM6,14V6h8v8Z"
     id="path1"
     style="fill:#ff0000" />
  <path
     class="clr-i-outline clr-i-outline-path-2"
     d="M30,4H22a2,2,0,0,0-2,2v8a2,2,0,0,0,2,2h8a2,2,0,0,0,2-2V6A2,2,0,0,0,30,4ZM22,14V6h8v8Z"
     id="path2"
     style="fill:#00aa00" />
  <path
     class="clr-i-outline clr-i-outline-path-3"
     d="M14,20H6a2,2,0,0,0-2,2v8a2,2,0,0,0,2,2h8a2,2,0,0,0,2-2V22A2,2,0,0,0,14,20ZM6,30V22h8v8Z"
     id="path3"
     style="fill:#0066ff" />
  <path
     class="clr-i-outline clr-i-outline-path-4"
     d="M30,20H22a2,2,0,0,0-2,2v8a2,2,0,0,0,2,2h8a2,2,0,0,0,2-2V22A2,2,0,0,0,30,20ZM22,30V22h8v8Z"
     id="path4"
     style="fill:#ffcc00" />
  <rect
     x="0"
     y="0"
     width="36"
     height="36"
     fill-opacity="0"
     id="rect4" />
</svg>
