<?xml version="1.0" encoding="UTF-8" standalone="no"?>
<svg
   version="1.1"
   width="36"
   height="36"
   viewBox="0 0 36 36"
   preserveAspectRatio="xMidYMid meet"
   id="svg2"
   sodipodi:docname="guihelp.svg"
   inkscape:version="1.3 (0e150ed6c4, 2023-07-21)"
   xmlns:inkscape="http://www.inkscape.org/namespaces/inkscape"
   xmlns:sodipodi="http://sodipodi.sourceforge.net/DTD/sodipodi-0.dtd"
   xmlns="http://www.w3.org/2000/svg"
   xmlns:svg="http://www.w3.org/2000/svg">
  <defs
     id="defs2" />
  <sodipodi:namedview
     id="namedview2"
     pagecolor="#ffffff"
     bordercolor="#000000"
     borderopacity="0.25"
     inkscape:showpageshadow="2"
     inkscape:pageopacity="0.0"
     inkscape:pagecheckerboard="0"
     inkscape:deskcolor="#d1d1d1"
     inkscape:zoom="24.388889"
     inkscape:cx="17.979499"
     inkscape:cy="18.020501"
     inkscape:window-width="1920"
     inkscape:window-height="1048"
     inkscape:window-x="0"
     inkscape:window-y="32"
     inkscape:window-maximized="1"
     inkscape:current-layer="svg2" />
  <title
     id="title1">info-line</title>
  <circle
     class="clr-i-outline clr-i-outline-path-1"
     cx="17.93"
     cy="11.9"
     r="1.4"
     id="circle1"
     style="fill:#0055d4" />
  <path
     class="clr-i-outline clr-i-outline-path-2"
     d="M21,23H19V15H16a1,1,0,0,0,0,2h1v6H15a1,1,0,1,0,0,2h6a1,1,0,0,0,0-2Z"
     id="path1"
     style="fill:#0055d4" />
  <path
     class="clr-i-outline clr-i-outline-path-3"
     d="M18,6A12,12,0,1,0,30,18,12,12,0,0,0,18,6Zm0,22A10,10,0,1,1,28,18,10,10,0,0,1,18,28Z"
     id="path2"
     style="fill:#0055d4" />
  <rect
     x="0"
     y="0"
     width="36"
     height="36"
     fill-opacity="0"
     id="rect2"
     style="fill:#0055d4" />
</svg>
