<?xml version="1.0" encoding="UTF-8" standalone="no"?>
<svg
   version="1.1"
   width="36"
   height="36"
   viewBox="0 0 36 36"
   preserveAspectRatio="xMidYMid meet"
   id="svg12"
   sodipodi:docname="main.svg"
   inkscape:version="1.2.2 (b0a8486541, 2022-12-01)"
   xmlns:inkscape="http://www.inkscape.org/namespaces/inkscape"
   xmlns:sodipodi="http://sodipodi.sourceforge.net/DTD/sodipodi-0.dtd"
   xmlns="http://www.w3.org/2000/svg"
   xmlns:svg="http://www.w3.org/2000/svg">
  <defs
     id="defs16" />
  <sodipodi:namedview
     id="namedview14"
     pagecolor="#ffffff"
     bordercolor="#000000"
     borderopacity="0.25"
     inkscape:showpageshadow="2"
     inkscape:pageopacity="0.0"
     inkscape:pagecheckerboard="0"
     inkscape:deskcolor="#d1d1d1"
     showgrid="false"
     inkscape:zoom="22.305556"
     inkscape:cx="16.34122"
     inkscape:cy="18.044832"
     inkscape:window-width="1352"
     inkscape:window-height="966"
     inkscape:window-x="299"
     inkscape:window-y="456"
     inkscape:window-maximized="0"
     inkscape:current-layer="svg12" />
  <title
     id="title2">layers-line</title>
  <path
     class="clr-i-outline clr-i-outline-path-1"
     d="M18,20.25a1,1,0,0,1-.43-.1l-15-7.09a1,1,0,0,1,0-1.81l15-7.09a1,1,0,0,1,.85,0l15,7.09a1,1,0,0,1,0,1.81l-15,7.09A1,1,0,0,1,18,20.25ZM5.34,12.16l12.66,6,12.66-6L18,6.18Z"
     id="path4"
     style="fill:#ffffff" />
  <path
     class="clr-i-outline clr-i-outline-path-2"
     d="M18,26.16a1,1,0,0,1-.43-.1L2.57,19a1,1,0,1,1,.85-1.81L18,24.06l14.57-6.89A1,1,0,1,1,33.43,19l-15,7.09A1,1,0,0,1,18,26.16Z"
     id="path6"
     style="fill:#ffffff" />
  <path
     class="clr-i-outline clr-i-outline-path-3"
     d="M18,32.07a1,1,0,0,1-.43-.1l-15-7.09a1,1,0,0,1,.85-1.81L18,30l14.57-6.89a1,1,0,1,1,.85,1.81L18.43,32A1,1,0,0,1,18,32.07Z"
     id="path8"
     style="fill:#ffffff" />
  <rect
     x="0"
     y="0"
     width="36"
     height="36"
     fill-opacity="0"
     id="rect10"
     style="fill:#ffffff" />
</svg>
