<?xml version="1.0" encoding="UTF-8" standalone="no"?>
<svg
   version="1.1"
   width="36"
   height="36"
   viewBox="0 0 36 36"
   preserveAspectRatio="xMidYMid meet"
   id="svg265"
   sodipodi:docname="progmgr.svg"
   inkscape:version="1.3 (0e150ed6c4, 2023-07-21)"
   xml:space="preserve"
   xmlns:inkscape="http://www.inkscape.org/namespaces/inkscape"
   xmlns:sodipodi="http://sodipodi.sourceforge.net/DTD/sodipodi-0.dtd"
   xmlns="http://www.w3.org/2000/svg"
   xmlns:svg="http://www.w3.org/2000/svg"><defs
     id="defs269" /><sodipodi:namedview
     id="namedview267"
     pagecolor="#ffffff"
     bordercolor="#000000"
     borderopacity="0.25"
     inkscape:showpageshadow="2"
     inkscape:pageopacity="0.0"
     inkscape:pagecheckerboard="0"
     inkscape:deskcolor="#d1d1d1"
     showgrid="false"
     inkscape:zoom="22.305556"
     inkscape:cx="16.296388"
     inkscape:cy="18"
     inkscape:window-width="1920"
     inkscape:window-height="1048"
     inkscape:window-x="0"
     inkscape:window-y="32"
     inkscape:window-maximized="1"
     inkscape:current-layer="svg265" /><title
     id="title253">application-line</title><rect
     x="5"
     y="7"
     width="2"
     height="2"
     class="clr-i-outline clr-i-outline-path-1"
     id="rect255"
     style="fill:#ffffff" /><rect
     x="9"
     y="7"
     width="2"
     height="2"
     class="clr-i-outline clr-i-outline-path-2"
     id="rect257"
     style="fill:#ffffff" /><rect
     x="13"
     y="7"
     width="2"
     height="2"
     class="clr-i-outline clr-i-outline-path-3"
     id="rect259"
     style="fill:#ffffff" /><path
     d="M32,4H4A2,2,0,0,0,2,6V30a2,2,0,0,0,2,2H32a2,2,0,0,0,2-2V6A2,2,0,0,0,32,4ZM4,6H32v4.2H4ZM4,30V11.8H32V30Z"
     class="clr-i-outline clr-i-outline-path-4"
     id="path261"
     style="fill:#ffffff" /><rect
     x="0"
     y="0"
     width="36"
     height="36"
     fill-opacity="0"
     id="rect263"
     style="fill:#ffffff" /><g
     id="g1"
     transform="matrix(0.44209217,0,0,0.42963887,9.5491898,12.508094)"
     style="fill:#ffffff"><path
       class="clr-i-outline--badged clr-i-outline-path-1--badged"
       d="m 11.1,18 c 0,3.9 3.1,7 7,7 3.9,0 7,-3.1 7,-7 0,-3.9 -3.1,-7 -7,-7 -3.9,0 -7,3.1 -7,7 z m 12,0 c 0,2.8 -2.2,5 -5,5 -2.8,0 -5,-2.2 -5,-5 0,-2.8 2.2,-5 5,-5 2.8,0 5,2.2 5,5 z"
       id="path1"
       style="fill:#ffffff" /><path
       class="clr-i-outline--badged clr-i-outline-path-2--badged"
       d="M 32.8,14.7 30,13.8 29.9,13.5 c -0.8,0 -1.6,-0.2 -2.4,-0.4 0.3,0.6 0.6,1.3 0.8,1.9 l 0.1,0.5 3.6,1.1 v 2.8 l -3.6,1.1 -0.1,0.5 c -0.3,0.7 -0.6,1.4 -0.9,2.1 l -0.3,0.5 1.8,3.3 -2,2 -3.3,-1.8 -0.5,0.3 c -0.7,0.4 -1.4,0.7 -2.1,0.9 L 20.5,28.4 19.4,32 H 16.6 L 15.5,28.4 15,28.3 C 14.3,28 13.6,27.7 12.9,27.4 l -0.5,-0.3 -3.3,1.8 -2,-2 1.8,-3.3 -0.3,-0.5 C 8.2,22.4 7.9,21.7 7.7,21 L 7.6,20.5 4,19.4 v -2.8 l 3.4,-1 0.2,-0.5 c 0.2,-0.8 0.5,-1.5 0.9,-2.2 l 0.3,-0.5 -1.7,-3.3 2,-2 3.2,1.8 0.5,-0.3 C 13.5,8.2 14.2,7.9 15,7.7 L 15.5,7.5 16.6,4 h 2.8 l 1.1,3.5 0.5,0.2 c 0.7,0.2 1.3,0.5 1.9,0.8 C 22.6,7.7 22.5,6.9 22.5,6 L 22.1,5.8 21.2,3 C 21,2.5 20.4,2 19.7,2 H 16.3 C 15.6,2 15,2.5 14.9,3.2 L 14,6 C 13.4,6.1 12.9,6.3 12.4,6.6 L 9.8,5.2 C 9.2,4.9 8.4,5 7.9,5.5 L 5.5,7.9 C 5,8.4 4.9,9.2 5.2,9.8 l 1.3,2.5 C 6.3,12.8 6.1,13.4 5.9,13.9 L 3.1,14.8 C 2.5,15 2,15.6 2,16.3 v 3.4 c 0,0.7 0.5,1.3 1.2,1.5 L 6,22.1 6.6,23.6 5.2,26.2 C 4.9,26.8 5,27.6 5.5,28.1 l 2.4,2.4 c 0.5,0.5 1.3,0.6 1.9,0.3 l 2.6,-1.4 1.5,0.6 0.9,2.9 c 0.2,0.6 0.8,1.1 1.5,1.1 h 3.4 c 0.7,0 1.3,-0.5 1.5,-1.1 l 0.9,-2.9 1.5,-0.6 2.6,1.4 c 0.6,0.3 1.4,0.2 1.9,-0.3 l 2.4,-2.4 c 0.5,-0.5 0.6,-1.3 0.3,-1.9 L 29.4,23.6 30,22.1 32.9,21.2 C 33.5,21 34,20.4 34,19.7 v -3.4 c 0,-0.7 -0.5,-1.4 -1.2,-1.6 z"
       id="path2"
       style="fill:#ffffff" /><circle
       class="clr-i-outline--badged clr-i-outline-path-3--badged clr-i-badge"
       cx="30"
       cy="6"
       r="5"
       id="circle2"
       style="fill:#ffffff" /><rect
       x="0"
       y="0"
       width="36"
       height="36"
       fill-opacity="0"
       id="rect2"
       style="fill:#ffffff" /></g></svg>
