<?xml version="1.0" encoding="UTF-8" standalone="no"?>
<svg
   version="1.1"
   width="36"
   height="36"
   viewBox="0 0 36 36"
   preserveAspectRatio="xMidYMid meet"
   id="svg2"
   sodipodi:docname="softwarecenter.svg"
   inkscape:version="1.3 (0e150ed6c4, 2023-07-21)"
   xmlns:inkscape="http://www.inkscape.org/namespaces/inkscape"
   xmlns:sodipodi="http://sodipodi.sourceforge.net/DTD/sodipodi-0.dtd"
   xmlns="http://www.w3.org/2000/svg"
   xmlns:svg="http://www.w3.org/2000/svg">
  <defs
     id="defs2" />
  <sodipodi:namedview
     id="namedview2"
     pagecolor="#ffffff"
     bordercolor="#000000"
     borderopacity="0.25"
     inkscape:showpageshadow="2"
     inkscape:pageopacity="0.0"
     inkscape:pagecheckerboard="0"
     inkscape:deskcolor="#d1d1d1"
     inkscape:zoom="24.305556"
     inkscape:cx="18"
     inkscape:cy="18"
     inkscape:window-width="1920"
     inkscape:window-height="1048"
     inkscape:window-x="0"
     inkscape:window-y="32"
     inkscape:window-maximized="1"
     inkscape:current-layer="svg2" />
  <title
     id="title1">tags-line</title>
  <path
     d="M33.16,19.13,19.58,5.55A1.92,1.92,0,0,0,18.21,5H16.12L31.75,20.45,21.22,31.07a1.93,1.93,0,0,0,2.73,0l9.21-9.21a1.93,1.93,0,0,0,0-2.73Z"
     class="clr-i-outline clr-i-outline-path-1"
     id="path1"
     style="fill:#ffffff" />
  <circle
     cx="7.81"
     cy="11.14"
     r="1.33"
     class="clr-i-outline clr-i-outline-path-2"
     id="circle1"
     style="fill:#ffffff" />
  <path
     d="M27.78,19.17,14.2,5.58A1.92,1.92,0,0,0,12.83,5H3.61A1.93,1.93,0,0,0,1.68,6.93v9.22a1.92,1.92,0,0,0,.57,1.36L15.84,31.1a1.93,1.93,0,0,0,2.73,0l9.21-9.21A1.93,1.93,0,0,0,27.78,19.17ZM17.26,29.69,3.69,16.15V7h9.1L26.37,20.48Z"
     class="clr-i-outline clr-i-outline-path-3"
     id="path2"
     style="fill:#ffffff" />
  <rect
     x="0"
     y="0"
     width="36"
     height="36"
     fill-opacity="0"
     id="rect2"
     style="fill:#ffffff" />
</svg>
