<?xml version="1.0" encoding="UTF-8" standalone="no"?>
<svg
   version="1.1"
   width="36"
   height="36"
   viewBox="0 0 36 36"
   preserveAspectRatio="xMidYMid meet"
   id="svg407"
   sodipodi:docname="terminal.svg"
   inkscape:version="1.2.2 (b0a8486541, 2022-12-01)"
   xmlns:inkscape="http://www.inkscape.org/namespaces/inkscape"
   xmlns:sodipodi="http://sodipodi.sourceforge.net/DTD/sodipodi-0.dtd"
   xmlns="http://www.w3.org/2000/svg"
   xmlns:svg="http://www.w3.org/2000/svg">
  <defs
     id="defs411" />
  <sodipodi:namedview
     id="namedview409"
     pagecolor="#ffffff"
     bordercolor="#000000"
     borderopacity="0.25"
     inkscape:showpageshadow="2"
     inkscape:pageopacity="0.0"
     inkscape:pagecheckerboard="0"
     inkscape:deskcolor="#d1d1d1"
     showgrid="false"
     inkscape:zoom="22.305556"
     inkscape:cx="16.296389"
     inkscape:cy="18"
     inkscape:window-width="1920"
     inkscape:window-height="1048"
     inkscape:window-x="0"
     inkscape:window-y="32"
     inkscape:window-maximized="1"
     inkscape:current-layer="svg407" />
  <title
     id="title397">terminal-line</title>
  <path
     d="M32,5H4A2,2,0,0,0,2,7V29a2,2,0,0,0,2,2H32a2,2,0,0,0,2-2V7A2,2,0,0,0,32,5ZM4,7H32V9.2H4ZM4,29V10.8H32V29Z"
     class="clr-i-outline clr-i-outline-path-1"
     id="path399"
     style="fill:#ffffff" />
  <rect
     x="17"
     y="23"
     width="6"
     height="2"
     class="clr-i-outline clr-i-outline-path-2"
     id="rect401"
     style="fill:#ffffff" />
  <polygon
     points="7 15.68 13.79 18.8 7 21.91 7 24.11 16.6 19.7 16.6 17.89 7 13.48 7 15.68"
     class="clr-i-outline clr-i-outline-path-3"
     id="polygon403"
     style="fill:#ffffff" />
  <rect
     x="0"
     y="0"
     width="36"
     height="36"
     fill-opacity="0"
     id="rect405"
     style="fill:#ffffff" />
</svg>
